<svg width="60" height="60" viewBox="0 0 60 60" fill="none" xmlns="http://www.w3.org/2000/svg">
<g clip-path="url(#clip0)">
<path d="M32.4 21.8245V24.0331L11.2339 30.9393V37.6195L14.1805 38.4249V49.451H18.2388C19.3922 49.451 20.3271 48.5161 20.3271 47.3628V40.105L32.4 43.4052V45.6139H37.5239V21.8245H32.4Z" fill="#5B25B2"/>
<path d="M55.6985 3.33765H4.30148C1.92961 3.33765 0 5.27136 0 7.64827V53.0958C0 55.0625 1.59387 56.6624 3.55277 56.6624H56.4471C58.4061 56.6624 59.9999 55.0625 59.9999 53.0958V7.64827C60 5.27136 58.0704 3.33765 55.6985 3.33765ZM2.34375 7.64827C2.34375 6.56382 3.22195 5.68151 4.30148 5.68151H55.6985C56.778 5.68151 57.6562 6.56382 57.6562 7.64827V14.613H2.34375V7.64827ZM57.6562 53.0957C57.6562 53.77 57.1139 54.3186 56.4472 54.3186H3.55277C2.88609 54.3186 2.34375 53.77 2.34375 53.0957V16.9566H57.6562V53.0957Z" fill="#222222"/>
<path d="M38.5514 8.97534H36.9772C36.33 8.97534 35.8054 9.49999 35.8054 10.1472C35.8054 10.7944 36.33 11.3191 36.9772 11.3191H38.5514C39.1986 11.3191 39.7233 10.7944 39.7233 10.1472C39.7233 9.49999 39.1986 8.97534 38.5514 8.97534Z" fill="#222222"/>
<path d="M45.8325 8.97534H44.2583C43.6111 8.97534 43.0864 9.49999 43.0864 10.1472C43.0864 10.7944 43.6111 11.3191 44.2583 11.3191H45.8325C46.4797 11.3191 47.0044 10.7944 47.0044 10.1472C47.0044 9.49999 46.4797 8.97534 45.8325 8.97534Z" fill="#222222"/>
<path d="M53.1137 8.97534H51.5396C50.8923 8.97534 50.3677 9.49999 50.3677 10.1472C50.3677 10.7944 50.8923 11.3191 51.5396 11.3191H53.1137C53.761 11.3191 54.2856 10.7944 54.2856 10.1472C54.2856 9.49999 53.761 8.97534 53.1137 8.97534Z" fill="#222222"/>
<path d="M19.7128 8.97534H8.35162C7.7044 8.97534 7.17975 9.49999 7.17975 10.1472C7.17975 10.7944 7.7044 11.3191 8.35162 11.3191H19.7128C20.3601 11.3191 20.8847 10.7944 20.8847 10.1472C20.8847 9.49999 20.3601 8.97534 19.7128 8.97534Z" fill="#222222"/>
<path d="M46.4222 33.7191C46.4222 35.253 45.8269 36.6931 44.7458 37.774C44.2882 38.2316 44.2881 38.9737 44.7458 39.4313C44.9747 39.6601 45.2746 39.7745 45.5745 39.7745C45.8744 39.7745 46.1744 39.66 46.4031 39.4313C47.9269 37.9075 48.7661 35.8789 48.7661 33.719C48.7661 31.5591 47.9269 29.5303 46.4032 28.0065C45.9456 27.5489 45.2036 27.5489 44.746 28.0065C44.2883 28.4642 44.2883 29.2062 44.746 29.6639C45.8269 30.7451 46.4222 32.1853 46.4222 33.7191Z" fill="#222222"/>
<path d="M41.0997 35.7855C41.3286 36.0144 41.6285 36.1288 41.9284 36.1288C42.2283 36.1288 42.5283 36.0144 42.757 35.7855C43.8963 34.6461 43.8963 32.7922 42.757 31.6528C42.2994 31.1952 41.5574 31.1952 41.0997 31.6528C40.6421 32.1104 40.6421 32.8524 41.0997 33.3102C41.2472 33.4576 41.2692 33.6297 41.2692 33.7192C41.2692 33.8087 41.2472 33.9807 41.0997 34.1281C40.6421 34.5859 40.6421 35.3279 41.0997 35.7855Z" fill="#222222"/>
</g>
<defs>
<clipPath id="clip0">
<rect width="60" height="60" fill="white"/>
</clipPath>
</defs>
</svg>
