
<svg width="180px" height="40px" viewBox="0 0 180 40" version="1.1" xmlns="http://www.w3.org/2000/svg" xmlns:xlink="http://www.w3.org/1999/xlink">
    <defs>
        <linearGradient x1="53.2497468%" y1="3.94657389%" x2="33.8872063%" y2="81.2743992%" id="linearGradient-1">
            <stop stop-color="#FFDD00" offset="0%"></stop>
            <stop stop-color="#EF4056" offset="100%"></stop>
        </linearGradient>
        <linearGradient x1="104.348837%" y1="49.8903088%" x2="-109.133721%" y2="49.8903088%" id="linearGradient-2">
            <stop stop-color="#5BC4BF" offset="0%"></stop>
            <stop stop-color="#2A5CAA" offset="100%"></stop>
        </linearGradient>
        <linearGradient x1="-0.285714286%" y1="50.2175182%" x2="164.292857%" y2="50.2175182%" id="linearGradient-3">
            <stop stop-color="#5BC4BF" offset="0%"></stop>
            <stop stop-color="#2A5CAA" offset="100%"></stop>
        </linearGradient>
    </defs>
    <g id="Page-1" stroke="none" stroke-width="1" fill="none" fill-rule="evenodd">
        <g id="4@2x">
            <g id="Group-2-Copy">
                <path d="M14.2625922,28.7037245 C14.2625922,24.3374921 11.6146207,20.4750557 7.64266343,19.1315996 C3.33970976,17.6202115 0.36074183,13.4219111 0.36074183,8.71981466 L0.36074183,2.84219412 C7.97365987,2.84219412 14.2625922,9.22361071 14.2625922,16.9484834 L14.2625922,28.7037245 Z" id="Path" fill="#0074BC"></path>
                <path d="M28.3299407,10.2312028 L36.7703498,10.2312028 C36.7703498,10.2312028 36.7703498,10.0632708 36.7703498,10.0632708 L28.1644425,8.88774667 L28.3299407,10.2312028 Z" id="Path" fill="#0074BC"></path>
                <path d="M28.3299407,10.0632708 C23.5304924,9.05567869 18.731044,10.7349988 15.4210797,14.2615712 L14.2625922,15.4370953 L14.2625922,23.497832 L14.2625922,30.3830447 C14.2625922,30.3830447 14.2625922,30.3830447 14.2625922,30.3830447 L14.2625922,39.2834415 C16.9105636,39.2834415 18.5655458,36.5965292 17.4070583,34.245481 L16.2485708,32.0623648 C15.4210797,30.3830447 15.7520761,28.1999285 17.4070583,27.0244044 C21.0480191,24.0016281 23.6959906,20.3071237 24.3579835,16.6126194 C25.1854746,11.4067269 28.8264354,10.0632708 28.8264354,10.0632708 L28.3299407,10.0632708 Z" id="Path" fill="url(#linearGradient-1)"></path>
                <path d="M14.2625922,24.8412881 L14.2625922,13.2539791 C14.2625922,10.3991348 15.5865779,8.21601861 17.5725565,6.87256249 C20.5515244,5.02531032 24.3579835,5.19324233 27.005955,7.54429055 C27.8334461,8.21601861 28.4954389,9.22361071 28.4954389,10.2312028 C20.7170227,10.2312028 14.2625922,16.7805514 14.2625922,24.8412881 Z" id="Path" fill="url(#linearGradient-2)"></path>
                <path d="M14.2625922,23.497832 C14.2625922,19.1315996 11.6146207,15.2691633 7.64266343,13.9257071 C3.33970976,12.414319 0.36074183,8.21601861 0.36074183,3.51392218 L0.36074183,0.491145898 C7.97365987,0.491145898 14.2625922,6.87256249 14.2625922,14.5974352 L14.2625922,23.497832 Z" id="Path" fill="url(#linearGradient-3)"></path>
                <polygon id="Path" fill="#0074BC" points="14.2625922 29.0395885 11.9456171 39.4513735 14.2625922 39.4513735"></polygon>
                <path d="M114.849887,37.9467705 L114.849887,21.3367675 C114.849887,20.4716632 115.519646,19.6065589 116.524283,19.6065589 C117.361481,19.6065589 118.198678,20.2986423 118.198678,21.3367675 L118.198678,37.7737496 C118.198678,38.6388539 117.52892,39.5039583 116.524283,39.5039583 C115.687085,39.5039583 114.849887,38.8118748 114.849887,37.9467705 Z" id="Path" fill="#000031"></path>
                <path d="M29.6231584,38.2928122 L29.6231584,22.8939553 L26.9441257,22.8939553 C26.106928,22.8939553 25.4371698,22.2018718 25.4371698,21.3367675 C25.4371698,20.4716632 26.106928,19.7795797 26.9441257,19.7795797 L35.4835425,19.7795797 C36.3207403,19.7795797 36.9904985,20.4716632 36.9904985,21.3367675 C36.9904985,22.2018718 36.3207403,22.8939553 35.4835425,22.8939553 L32.8045098,22.8939553 L32.8045098,38.2928122 C32.8045098,39.1579165 32.1347516,39.85 31.2975539,39.85 L31.1301143,39.85 C30.2929166,39.85 29.6231584,39.1579165 29.6231584,38.2928122 Z" id="Path" fill="#000031"></path>
                <path d="M56.5809254,39.85 L56.5809254,19.7795797 L64.6180236,19.7795797 C65.4552213,19.7795797 66.1249795,20.4716632 66.1249795,21.3367675 C66.1249795,22.2018718 65.4552213,22.8939553 64.6180236,22.8939553 L59.9297163,22.8939553 L59.9297163,27.9115604 L64.115705,27.9115604 C64.9529027,27.9115604 65.6226609,28.6036438 65.6226609,29.4687481 C65.6226609,30.3338525 64.9529027,31.0259359 64.115705,31.0259359 L59.9297163,31.0259359 L59.9297163,36.5626036 L64.9529027,36.5626036 C65.7901004,36.5626036 66.4598586,37.254687 66.4598586,38.1197914 L66.4598586,38.2928122 C66.4598586,39.1579165 65.7901004,39.85 64.9529027,39.85 L56.5809254,39.85 Z" id="Path" fill="#000031"></path>
                <path d="M89.3990764,39.85 L89.3990764,19.7795797 L97.4361747,19.7795797 C98.2733724,19.7795797 98.9431306,20.4716632 98.9431306,21.3367675 C98.9431306,22.2018718 98.2733724,22.8939553 97.4361747,22.8939553 L92.7478674,22.8939553 L92.7478674,27.9115604 L96.933856,27.9115604 C97.7710538,27.9115604 98.4408119,28.6036438 98.4408119,29.4687481 C98.4408119,30.3338525 97.7710538,31.0259359 96.933856,31.0259359 L92.7478674,31.0259359 L92.7478674,36.5626036 L97.7710538,36.5626036 C98.6082515,36.5626036 99.2780097,37.254687 99.2780097,38.1197914 L99.2780097,38.2928122 C99.2780097,39.1579165 98.6082515,39.85 97.7710538,39.85 L89.3990764,39.85 Z" id="Path" fill="#000031"></path>
                <path d="M102.291922,37.7737496 L102.291922,19.6065589 L110.32902,19.6065589 C111.166217,19.6065589 111.835976,20.2986423 111.835976,21.1637466 C111.835976,22.028851 111.166217,22.7209344 110.32902,22.7209344 L105.640712,22.7209344 L105.640712,27.9115604 L109.491822,27.9115604 C110.32902,27.9115604 110.998778,28.6036438 110.998778,29.4687481 C110.998778,30.3338525 110.32902,31.0259359 109.491822,31.0259359 L105.640712,31.0259359 L105.640712,37.9467705 C105.640712,38.9848957 104.970954,39.6769791 103.966317,39.6769791 C103.129119,39.5039583 102.291922,38.8118748 102.291922,37.7737496 Z" id="Path" fill="#000031"></path>
                <path d="M127.742733,39.85 C125.733458,39.85 123.891623,39.1579165 122.719546,37.9467705 C122.384667,37.6007288 122.217228,37.254687 122.049788,36.9086453 C121.38003,35.8705201 122.217228,34.4863532 123.389304,34.4863532 L123.556744,34.4863532 C124.059063,34.4863532 124.561381,34.8323949 124.89626,35.1784367 C125.0637,35.3514575 125.0637,35.5244784 125.231139,35.6974993 C125.900898,36.3895827 126.738095,36.7356244 127.742733,36.7356244 C129.752007,36.7356244 130.924084,35.5244784 130.924084,33.7942697 C130.924084,31.1989568 128.245051,31.0259359 127.240414,30.852915 C125.566018,30.6798942 121.547469,29.9878107 121.547469,25.1432265 C121.547469,21.5097884 123.891623,19.2605171 127.575293,19.2605171 C129.417128,19.2605171 131.091523,19.7795797 132.096161,20.9907258 C132.43104,21.3367675 132.598479,21.6828092 132.933358,22.028851 C133.435677,23.0669761 132.765919,24.4511431 131.593842,24.4511431 C131.091523,24.4511431 130.589205,24.1051013 130.254326,23.5860387 C130.086886,23.4130179 130.086886,23.239997 129.919447,23.0669761 C129.417128,22.5479136 128.57993,22.2018718 127.742733,22.2018718 C125.900898,22.2018718 124.728821,23.4130179 124.728821,25.1432265 C124.728821,26.0083308 125.0637,27.5655186 127.910172,27.9115604 C131.928721,28.2576021 134.272875,29.4687481 134.272875,33.7942697 C134.272875,37.6007288 131.761282,39.85 127.742733,39.85 Z" id="Path" fill="#000031"></path>
                <path d="M147.500599,37.7737496 L147.500599,31.1989568 L140.970457,31.1989568 L140.970457,37.7737496 C140.970457,38.8118748 140.300699,39.5039583 139.296061,39.5039583 C138.291424,39.5039583 137.621666,38.8118748 137.621666,37.7737496 L137.621666,21.3367675 C137.621666,20.2986423 138.291424,19.6065589 139.296061,19.6065589 C140.300699,19.6065589 140.970457,20.2986423 140.970457,21.3367675 L140.970457,27.9115604 L147.500599,27.9115604 L147.500599,21.3367675 C147.500599,20.2986423 148.170357,19.6065589 149.174994,19.6065589 C150.179632,19.6065589 150.84939,20.2986423 150.84939,21.3367675 L150.84939,37.7737496 C150.84939,38.8118748 150.179632,39.5039583 149.174994,39.5039583 C148.337797,39.5039583 147.500599,38.8118748 147.500599,37.7737496 Z" id="Path" fill="#000031"></path>
                <path d="M49.5484644,37.7737496 L49.5484644,31.1989568 L43.0183221,31.1989568 L43.0183221,37.7737496 C43.0183221,38.8118748 42.3485639,39.5039583 41.3439267,39.5039583 C40.3392894,39.5039583 39.6695312,38.8118748 39.6695312,37.7737496 L39.6695312,21.3367675 C39.6695312,20.2986423 40.3392894,19.6065589 41.3439267,19.6065589 C42.3485639,19.6065589 43.0183221,20.2986423 43.0183221,21.3367675 L43.0183221,27.9115604 L49.5484644,27.9115604 L49.5484644,21.3367675 C49.5484644,20.2986423 50.2182226,19.6065589 51.2228599,19.6065589 C52.2274972,19.6065589 52.8972554,20.2986423 52.8972554,21.3367675 L52.8972554,37.7737496 C52.8972554,38.8118748 52.2274972,39.5039583 51.2228599,39.5039583 C50.2182226,39.5039583 49.5484644,38.8118748 49.5484644,37.7737496 Z" id="Path" fill="#000031"></path>
                <path d="M154.700499,39.5039583 L154.700499,19.6065589 L162.737598,19.6065589 C163.574795,19.6065589 164.244554,20.2986423 164.244554,21.1637466 C164.244554,22.028851 163.574795,22.7209344 162.737598,22.7209344 L158.04929,22.7209344 L158.04929,27.7385395 L162.235279,27.7385395 C163.072477,27.7385395 163.742235,28.4306229 163.742235,29.2957273 C163.742235,30.1608316 163.072477,30.852915 162.235279,30.852915 L158.04929,30.852915 L158.04929,36.3895827 L162.905037,36.3895827 C163.742235,36.3895827 164.411993,37.0816662 164.411993,37.9467705 L164.411993,38.1197914 C164.411993,38.9848957 163.742235,39.6769791 162.905037,39.6769791 L154.700499,39.6769791 L154.700499,39.5039583 Z" id="Path" fill="#000031"></path>
                <path d="M176.46764,38.4658331 L174.123487,32.7561446 L170.607256,32.7561446 L170.607256,37.7737496 C170.607256,38.6388539 169.937498,39.5039583 168.932861,39.5039583 C168.095663,39.5039583 167.258465,38.8118748 167.258465,37.7737496 L167.258465,19.7795797 L173.788608,19.7795797 C177.472278,19.7795797 179.983871,22.3748927 179.983871,26.5273934 C179.983871,28.9496855 179.314113,30.5068733 177.807157,31.5449985 L177.137399,32.0640611 L179.481552,37.0816662 C179.983871,38.2928122 179.146673,39.5039583 177.974596,39.5039583 C177.304838,39.5039583 176.63508,39.1579165 176.46764,38.4658331 Z M170.439817,29.9878107 L173.621168,29.9878107 C175.463003,29.9878107 176.63508,28.4306229 176.63508,26.3543726 C176.63508,24.2781222 175.463003,22.7209344 173.621168,22.7209344 L170.439817,22.7209344 L170.439817,29.9878107 Z" id="Shape" fill="#000031" fill-rule="nonzero"></path>
                <path d="M82.1991759,38.1197914 L82.1991759,27.9115604 L78.3480664,35.6974993 C78.0131873,36.3895827 77.00855,36.3895827 76.6736709,35.6974993 L72.8225614,27.9115604 L72.8225614,38.1197914 C72.8225614,39.1579165 71.9853636,39.85 71.1481659,39.85 C70.1435286,39.85 69.4737704,38.9848957 69.4737704,38.1197914 L69.4737704,21.5097884 C69.4737704,19.7795797 71.483045,19.0874963 72.4876823,20.4716632 L77.1759896,30.5068733 C77.3434291,30.6798942 77.6783082,30.6798942 77.6783082,30.5068733 L82.3666155,20.4716632 C83.3712528,19.2605171 85.3805273,19.9526006 85.3805273,21.5097884 L85.3805273,38.1197914 C85.3805273,39.1579165 84.5433296,39.85 83.7061319,39.85 C82.8689341,39.85 82.1991759,39.1579165 82.1991759,38.1197914 Z" id="Path" fill="#000031"></path>
            </g>
        </g>
    </g>
</svg>